<?xml version="1.0" encoding="UTF-8" standalone="no"?>
<!-- Created with Inkscape (http://www.inkscape.org/) -->

<svg
   width="350"
   height="96.277359"
   viewBox="0 0 92.604156 25.473381"
   version="1.1"
   id="svg1"
   xmlns="http://www.w3.org/2000/svg"
   xmlns:svg="http://www.w3.org/2000/svg">
  <defs
     id="defs1">
    <clipPath
       clipPathUnits="userSpaceOnUse"
       id="clipPath101">
      <path
         d="M 0,0 H 7680 V 4320 H 0 Z"
         transform="matrix(0.25000001,0,0,0.25000001,-252.34156,-69.511721)"
         clip-rule="evenodd"
         id="path101" />
    </clipPath>
    <clipPath
       clipPathUnits="userSpaceOnUse"
       id="clipPath103">
      <path
         d="M 0,0 H 7680 V 4320 H 0 Z"
         transform="matrix(0.25000001,0,0,0.25000001,-280.97971,-79.591802)"
         clip-rule="evenodd"
         id="path103" />
    </clipPath>
    <clipPath
       clipPathUnits="userSpaceOnUse"
       id="clipPath105">
      <path
         d="M 0,0 H 7680 V 4320 H 0 Z"
         transform="matrix(0.25000001,0,0,0.25000001,-300.54638,-78.896484)"
         clip-rule="evenodd"
         id="path105" />
    </clipPath>
    <clipPath
       clipPathUnits="userSpaceOnUse"
       id="clipPath107">
      <path
         d="M 0,0 H 7680 V 4320 H 0 Z"
         transform="matrix(0.25000001,0,0,0.25000001,-332.68118,-69.511721)"
         clip-rule="evenodd"
         id="path107" />
    </clipPath>
    <clipPath
       clipPathUnits="userSpaceOnUse"
       id="clipPath109">
      <path
         d="M 0,0 H 7680 V 4320 H 0 Z"
         transform="matrix(0.25000001,0,0,0.25000001,-363.22463,-71.218752)"
         clip-rule="evenodd"
         id="path109" />
    </clipPath>
    <clipPath
       clipPathUnits="userSpaceOnUse"
       id="clipPath111">
      <path
         d="M 0,0 H 7680 V 4320 H 0 Z"
         transform="matrix(0.25000001,0,0,0.25000001,-382.84816,-79.749999)"
         clip-rule="evenodd"
         id="path111" />
    </clipPath>
    <clipPath
       clipPathUnits="userSpaceOnUse"
       id="clipPath113">
      <path
         d="M 0,0 H 7680 V 4320 H 0 Z"
         transform="matrix(0.25000001,0,0,0.25000001,-412.59474,-78.896484)"
         clip-rule="evenodd"
         id="path113" />
    </clipPath>
    <clipPath
       clipPathUnits="userSpaceOnUse"
       id="clipPath115">
      <path
         d="M 0,0 H 7680 V 4320 H 0 Z"
         transform="matrix(0.25000001,0,0,0.25000001,-1231.6319,-496.71096)"
         clip-rule="evenodd"
         id="path115" />
    </clipPath>
    <clipPath
       clipPathUnits="userSpaceOnUse"
       id="clipPath117">
      <path
         d="M 0,0 H 7680 V 4320 H 0 Z"
         transform="matrix(0.25000001,0,0,0.25000001,-455.62134,-78.896484)"
         clip-rule="evenodd"
         id="path117" />
    </clipPath>
    <clipPath
       clipPathUnits="userSpaceOnUse"
       id="clipPath119">
      <path
         d="M 0,0 H 7680 V 4320 H 0 Z"
         transform="matrix(0.25000001,0,0,0.25000001,-698.68089,-575.02736)"
         clip-rule="evenodd"
         id="path119" />
    </clipPath>
    <clipPath
       clipPathUnits="userSpaceOnUse"
       id="clipPath121">
      <path
         d="M 0,0 H 7680 V 4320 H 0 Z"
         transform="matrix(0.25000001,0,0,0.25000001,-180.67478,-81.308597)"
         clip-rule="evenodd"
         id="path121" />
    </clipPath>
    <clipPath
       clipPathUnits="userSpaceOnUse"
       id="clipPath123">
      <path
         d="M 0,0 H 7680 V 4320 H 0 Z"
         transform="matrix(0.25000001,0,0,0.25000001,-751.10747,-522.29104)"
         clip-rule="evenodd"
         id="path123" />
    </clipPath>
    <clipPath
       clipPathUnits="userSpaceOnUse"
       id="clipPath125">
      <path
         d="M 0,0 H 7680 V 4320 H 0 Z"
         transform="matrix(0.25000001,0,0,0.25000001,-672.00219,-495.92189)"
         clip-rule="evenodd"
         id="path125" />
    </clipPath>
    <clipPath
       clipPathUnits="userSpaceOnUse"
       id="clipPath127">
      <path
         d="M 0,0 H 7680 V 4320 H 0 Z"
         transform="matrix(0.25000001,0,0,0.25000001,-167.48243,-81.308597)"
         clip-rule="evenodd"
         id="path127" />
    </clipPath>
    <clipPath
       clipPathUnits="userSpaceOnUse"
       id="clipPath129">
      <path
         d="M 0,0 H 7680 V 4320 H 0 Z"
         transform="matrix(0.25000001,0,0,0.25000001,-645.94217,-495.92189)"
         clip-rule="evenodd"
         id="path129" />
    </clipPath>
    <clipPath
       clipPathUnits="userSpaceOnUse"
       id="clipPath131">
      <path
         d="M 0,0 H 7680 V 4320 H 0 Z"
         transform="matrix(0.25000001,0,0,0.25000001,-135.19095,-42.099611)"
         clip-rule="evenodd"
         id="path131" />
    </clipPath>
  </defs>
  <g
     id="layer1"
     transform="translate(0.0806845,-0.37724048)">
    <path
       id="path100"
       d="m 591.2666,511.73917 v -82.81531 h 49.86145 v 13.85815 h -36.00049 v 20.64679 h 36.00049 v 13.80261 h -36.00049 v 34.50776 z"
       style="fill:#2f463e;fill-opacity:1;fill-rule:nonzero;stroke:none"
       transform="matrix(0.1311315,0,0,0.1311315,-46.548226,-48.598915)"
       clip-path="url(#clipPath101)" />
    <path
       id="path102"
       d="m 620.54199,501.65915 v -62.11249 h 12.25122 v 15.12561 l -1.49951,-1.95453 c 0.77161,-2.07123 1.79419,-3.95849 3.0802,-5.66369 1.28589,-1.70526 2.82691,-3.11768 4.62903,-4.22943 1.53516,-1.03461 3.22839,-1.84967 5.08997,-2.44312 1.85961,-0.59149 3.76855,-0.95746 5.72497,-1.09198 1.95459,-0.13452 3.84973,-0.0494 5.68945,0.25714 v 12.94159 c -1.83972,-0.53809 -3.95654,-0.7102 -6.35217,-0.51831 -2.39941,0.19 -4.55383,0.86255 -6.47082,2.01386 -1.91675,1.03271 -3.47962,2.35607 -4.68628,3.9663 -1.20874,1.61231 -2.10291,3.44422 -2.67469,5.49555 -0.57556,2.04956 -0.86438,4.26318 -0.86438,6.63898 v 31.57452 z"
       style="fill:#2f463e;fill-opacity:1;fill-rule:nonzero;stroke:none"
       transform="matrix(0.1311315,0,0,0.1311315,-42.792863,-47.277101)"
       clip-path="url(#clipPath103)" />
    <path
       id="path104"
       d="m 661.36279,504.08148 c -4.48657,0 -8.28283,-0.85461 -11.3905,-2.55981 -3.10193,-1.7052 -5.4541,-3.97821 -7.0426,-6.815 -1.59241,-2.83674 -2.38574,-5.96241 -2.38574,-9.37488 0,-2.99097 0.49658,-5.68341 1.49157,-8.08106 0.99903,-2.39563 2.53418,-4.46484 4.60156,-6.21161 2.073,-1.74286 4.7555,-3.16912 8.05323,-4.28289 2.49255,-0.80512 5.41638,-1.53309 8.76941,-2.18396 3.35717,-0.65082 6.99914,-1.25617 10.92785,-1.81403 3.93274,-0.55591 8.04358,-1.15729 12.33631,-1.81201 l -4.94568,2.81891 c 0.0376,-4.29273 -0.91992,-7.45789 -2.87427,-9.48957 -1.95459,-2.03167 -5.2522,-3.04846 -9.89319,-3.04846 -2.79919,0 -5.50146,0.65283 -8.11084,1.95453 -2.60718,1.3056 -4.42724,3.54895 -5.46179,6.73187 l -12.65088,-3.97027 c 1.5332,-5.2522 4.45508,-9.46778 8.76953,-12.65277 4.31055,-3.18097 10.13062,-4.77344 17.45398,-4.77344 5.52124,0 10.38184,0.90002 14.57959,2.70221 4.19776,1.80218 7.31348,4.75561 9.34522,8.85852 1.11169,2.18396 1.78418,4.41937 2.01172,6.70026 0.23156,2.28094 0.34826,4.76562 0.34826,7.4461 v 38.13037 H 683.1571 v -13.45788 l 2.01392,2.18786 c -2.79932,4.48468 -6.06543,7.77259 -9.8042,9.86157 -3.73877,2.08893 -8.40759,3.13544 -14.00403,3.13544 m 2.75977,-11.04248 c 3.14343,0 5.82788,-0.55585 8.05151,-1.6676 2.22339,-1.11383 3.99585,-2.47479 5.31922,-4.08508 1.32348,-1.60834 2.21374,-3.12561 2.67663,-4.542 0.72608,-1.76458 1.13758,-3.78631 1.23438,-6.06726 0.0969,-2.28088 0.14648,-4.13061 0.14648,-5.5509 l 4.25305,1.26599 c -4.17798,0.65094 -7.76452,1.22656 -10.75354,1.72711 -2.99121,0.49652 -5.56079,0.9654 -7.70727,1.4065 -2.14832,0.4411 -4.04346,0.92975 -5.69324,1.46783 -1.61035,0.57367 -2.97144,1.24628 -4.08508,2.01184 -1.1117,0.76764 -1.96241,1.64984 -2.55786,2.64691 -0.59742,0.995 -0.89222,2.16413 -0.89222,3.50733 0,1.53515 0.38379,2.88428 1.15137,4.05542 0.76758,1.16913 1.88721,2.09692 3.36499,2.78735 1.47571,0.69232 3.30762,1.03656 5.49158,1.03656"
       style="fill:#2f463e;fill-opacity:1;fill-rule:nonzero;stroke:none"
       transform="matrix(0.1311315,0,0,0.1311315,-40.227054,-47.368279)"
       clip-path="url(#clipPath105)" />
    <path
       id="path106"
       d="m 673.39392,511.73917 0.11401,-82.81531 h 14.03626 v 50.60943 l 22.71497,-29.90704 h 17.31091 l -24.0968,31.05786 26.16797,31.05506 h -18.34791 l -23.74914,-29.90699 v 29.90699 z"
       style="fill:#2f463e;fill-opacity:1;fill-rule:nonzero;stroke:none"
       transform="matrix(0.1311315,0,0,0.1311315,-36.013169,-48.598915)"
       clip-path="url(#clipPath107)" />
    <path
       id="path108"
       d="m 709.44989,447.92014 h 27.20251 v 10.87042 h -27.20251 z m 27.20251,62.11248 c -4.10473,0.76569 -8.11853,1.10187 -12.04931,1.00898 -3.92883,-0.10096 -7.45007,-0.82703 -10.55188,-2.18799 -3.10779,-1.35901 -5.46594,-3.51734 -7.07422,-6.47077 -1.42029,-2.68255 -2.16809,-5.42236 -2.24329,-8.22357 -0.0792,-2.79913 -0.11682,-5.95837 -0.11682,-9.48755 V 430.668 h 13.80237 v 53.19659 c 0,2.49256 0.0297,4.68055 0.0869,6.55786 0.0596,1.87934 0.4491,3.41248 1.18091,4.60138 1.37891,2.29871 3.58264,3.58448 6.61341,3.85358 3.02856,0.26508 6.47876,0.11273 10.35192,-0.46094 v 11.61615 z"
       style="fill:#2f463e;fill-opacity:1;fill-rule:nonzero;stroke:none"
       transform="matrix(0.1311315,0,0,0.1311315,-32.00796,-48.37507)"
       clip-path="url(#clipPath109)" />
    <path
       id="path110"
       d="m 747.22003,501.50192 -22.54284,-62.11291 h 13.86108 l 15.64282,45.03283 15.5846,-45.03283 h 13.91626 l -22.54248,62.11291 z"
       style="fill:#2f463e;fill-opacity:1;fill-rule:nonzero;stroke:none"
       transform="matrix(0.1311315,0,0,0.1311315,-29.434699,-47.256356)"
       clip-path="url(#clipPath111)" />
    <path
       id="path112"
       d="m 775.90692,504.08148 c -4.48865,0 -8.28284,-0.85461 -11.38879,-2.55981 -3.10376,-1.7052 -5.45581,-3.97821 -7.04431,-6.815 -1.59253,-2.83674 -2.38782,-5.96241 -2.38782,-9.37488 0,-2.99097 0.49646,-5.68341 1.49353,-8.08106 0.99902,-2.39563 2.5321,-4.46484 4.60339,-6.21161 2.07129,-1.74286 4.75366,-3.16912 8.05139,-4.28289 2.4906,-0.80512 5.41639,-1.53309 8.76954,-2.18396 3.3551,-0.65082 6.9989,-1.25617 10.92773,-1.81403 3.93274,-0.55591 8.0415,-1.15729 12.3363,-1.81201 l -4.94568,2.81891 c 0.0376,-4.29273 -0.9198,-7.45789 -2.87439,-9.48957 -1.95446,-2.03167 -5.25219,-3.04846 -9.89501,-3.04846 -2.79725,0 -5.49964,0.65283 -8.10877,1.95453 -2.60742,1.3056 -4.42737,3.54895 -5.46191,6.73187 l -12.65284,-3.97027 c 1.53516,-5.2522 4.45496,-9.46778 8.76954,-12.65277 4.31262,-3.18097 10.13049,-4.77344 17.45398,-4.77344 5.52124,0 10.38171,0.90002 14.57959,2.70221 4.19775,1.80218 7.31542,4.75561 9.34509,8.85852 1.11377,2.18396 1.78637,4.41937 2.01391,6.70026 0.22937,2.28094 0.3462,4.76562 0.3462,7.4461 v 38.13037 h -12.13648 v -13.45788 l 2.01184,2.18786 c -2.79724,4.48468 -6.06323,7.77259 -9.80224,9.86157 -3.74073,2.08893 -8.40748,3.13544 -14.00379,3.13544 m 2.75952,-11.04248 c 3.14344,0 5.82801,-0.55585 8.05139,-1.6676 2.22156,-1.11383 3.99622,-2.47479 5.31958,-4.08508 1.32349,-1.60834 2.21363,-3.12561 2.67457,-4.542 0.7279,-1.76458 1.1394,-3.78631 1.23645,-6.06726 0.0969,-2.28088 0.14636,-4.13061 0.14636,-5.5509 l 4.25317,1.26599 c -4.1781,0.65094 -7.76452,1.22656 -10.75366,1.72711 -2.99109,0.49652 -5.56091,0.9654 -7.70923,1.4065 -2.14636,0.4411 -4.0415,0.92975 -5.69324,1.46783 -1.60827,0.57367 -2.97143,1.24628 -4.08313,2.01184 -1.10986,0.76764 -1.96252,1.64984 -2.55993,2.64691 -0.59534,0.995 -0.89002,2.16413 -0.89002,3.50733 0,1.53515 0.38172,2.88428 1.15125,4.05542 0.76745,1.16913 1.88708,2.09692 3.36487,2.78735 1.47583,0.69232 3.30578,1.03656 5.49157,1.03656"
       style="fill:#2f463e;fill-opacity:1;fill-rule:nonzero;stroke:none"
       transform="matrix(0.1311315,0,0,0.1311315,-25.533986,-47.368279)"
       clip-path="url(#clipPath113)" />
    <path
       id="path114"
       d="M 0,0 H 13.86096 V 84.541748 H 0 Z"
       style="fill:#2f463e;fill-opacity:1;fill-rule:nonzero;stroke:none"
       transform="matrix(0.1311315,0,0,0.1311315,81.867583,7.4203576)"
       clip-path="url(#clipPath115)" />
    <path
       id="path116"
       d="m 827.4259,504.07953 c -5.71496,0 -10.70031,-1.43817 -14.95349,-4.31256 -4.25708,-2.87433 -7.55481,-6.78528 -9.89111,-11.73084 -2.34021,-4.94964 -3.51123,-10.52429 -3.51123,-16.73785 0,-6.28687 1.17895,-11.89508 3.53906,-16.82092 2.35596,-4.9278 5.70313,-8.81891 10.0354,-11.67548 4.3324,-2.85468 9.43225,-4.28485 15.29773,-4.28485 5.90295,0 10.85852,1.43017 14.86633,4.28485 4.00403,2.85657 7.04468,6.75562 9.11573,11.70514 2.06921,4.94562 3.10583,10.54199 3.10583,16.79126 0,6.17407 -1.03662,11.74274 -3.10583,16.70813 -2.07105,4.96338 -5.15711,8.88623 -9.26014,11.76056 -4.10083,2.87439 -9.18286,4.31256 -15.23828,4.31256 m 1.20472,27.60815 c -3.448,0 -6.7555,-0.53808 -9.91883,-1.61224 -3.16308,-1.07214 -6.01172,-2.61523 -8.54187,-4.62903 -2.53027,-2.01391 -4.60156,-4.43915 -6.20971,-7.27588 l 12.76538,-6.32647 c 1.18896,2.26312 2.86853,3.94067 5.03271,5.03265 2.16821,1.09198 4.47864,1.638 6.93176,1.638 2.87427,0 5.44214,-0.50842 7.70508,-1.52325 2.26123,-1.0149 4.01782,-2.51246 5.26221,-4.48469 1.24426,-1.97827 1.83179,-4.43713 1.75464,-7.39062 v -17.65576 h 1.72693 V 440.242 h 12.13269 v 65.10163 c 0,1.57464 -0.0675,3.08014 -0.19983,4.51629 -0.13452,1.43818 -0.35608,2.84864 -0.66284,4.22742 -0.9198,4.02576 -2.68238,7.33136 -5.2898,9.9209 -2.60913,2.58752 -5.83765,4.51434 -9.68933,5.7804 -3.85559,1.26409 -8.11853,1.89904 -12.79919,1.89904 m 0.92187,-40.02948 c 3.71716,0 6.71814,-0.85254 9.00305,-2.55981 2.27698,-1.7052 3.94654,-4.09094 5.00086,-7.15918 1.05444,-3.06629 1.58252,-6.61328 1.58252,-10.64093 0,-4.06329 -0.52808,-7.61817 -1.58252,-10.66864 -1.05432,-3.04645 -2.69434,-5.42432 -4.91577,-7.13147 -2.22754,-1.70526 -5.10193,-2.55786 -8.6272,-2.55786 -3.72107,0 -6.78919,0.91198 -9.20276,2.72998 -2.41541,1.82391 -4.19971,4.27685 -5.34705,7.36291 -1.15136,3.08606 -1.72705,6.50843 -1.72705,10.26508 0,3.79614 0.56775,7.23834 1.69727,10.32239 1.12964,3.08807 2.86658,5.53308 5.20276,7.33331 2.34033,1.80408 5.30969,2.70422 8.91589,2.70422"
       style="fill:#2f463e;fill-opacity:1;fill-rule:nonzero;stroke:none"
       transform="matrix(0.1311315,0,0,0.1311315,-19.891842,-47.368279)"
       clip-path="url(#clipPath117)" />
    <path
       id="path118"
       d="M 0,0 H 36.590633 V 10.224112 H 0 Z"
       style="fill:#2f463e;fill-opacity:1;fill-rule:nonzero;stroke:none"
       transform="matrix(0.1311315,0,0,0.1311315,11.980922,17.690107)"
       clip-path="url(#clipPath119)" />
    <path
       id="path120"
       d="M 549.48462,477.57236 H 518.005 v -10.22351 h 26.36768 V 440.983 h 10.22363 v 31.4776 c 0,2.82495 -2.29077,5.11176 -5.11169,5.11176"
       style="fill:#2f463e;fill-opacity:1;fill-rule:nonzero;stroke:none"
       transform="matrix(0.1311315,0,0,0.1311315,-55.945997,-47.051975)"
       clip-path="url(#clipPath121)" />
    <path
       id="path122"
       d="M 0,0 H 10.224112 V 62.960106 H 0 Z"
       style="fill:#2f463e;fill-opacity:1;fill-rule:nonzero;stroke:none"
       transform="matrix(0.1311315,0,0,0.1311315,18.855697,10.774711)"
       clip-path="url(#clipPath123)" />
    <path
       id="path124"
       d="M 0,0 H 36.593487 V 10.224112 H 0 Z"
       style="fill:#2f463e;fill-opacity:1;fill-rule:nonzero;stroke:none"
       transform="matrix(0.1311315,0,0,0.1311315,8.4825033,7.3168848)"
       clip-path="url(#clipPath125)" />
    <path
       id="path126"
       d="M 514.74438,477.57236 H 504.51901 V 446.0947 c 0,-2.82282 2.29083,-5.1117 5.11176,-5.1117 h 31.48166 v 10.22351 h -26.36805 z"
       style="fill:#2f463e;fill-opacity:1;fill-rule:nonzero;stroke:none"
       transform="matrix(0.1311315,0,0,0.1311315,-57.675931,-47.051975)"
       clip-path="url(#clipPath127)" />
    <path
       id="path128"
       d="M 0,0 H 10.224112 V 62.960106 H 0 Z"
       style="fill:#2f463e;fill-opacity:1;fill-rule:nonzero;stroke:none"
       transform="matrix(0.1311315,0,0,0.1311315,5.0652148,7.3168848)"
       clip-path="url(#clipPath129)" />
    <path
       id="path130"
       d="m 568.63812,595.1593 c -53.55652,0 -97.12915,-43.57251 -97.12915,-97.12915 0,-53.5567 43.57263,-97.12915 97.12915,-97.12915 53.55677,0 97.12915,43.57245 97.12915,97.12915 0,53.55664 -43.57238,97.12915 -97.12915,97.12915 m 0,-184.03479 c -47.91852,0 -86.90356,38.98694 -86.90356,86.90564 0,47.92261 38.98504,86.90564 86.90356,86.90564 47.91883,0 86.90576,-38.98303 86.90576,-86.90564 0,-47.9187 -38.98693,-86.90564 -86.90576,-86.90564"
       style="fill:#2f463e;fill-opacity:1;fill-rule:nonzero;stroke:none"
       transform="matrix(0.1311315,0,0,0.1311315,-61.910363,-52.193509)"
       clip-path="url(#clipPath131)" />
  </g>
</svg>
